<?xml version="1.0" standalone="no"?>
<!DOCTYPE svg PUBLIC "-//W3C//DTD SVG 20010904//EN"
 "http://www.w3.org/TR/2001/REC-SVG-20010904/DTD/svg10.dtd">
<svg version="1.0" xmlns="http://www.w3.org/2000/svg"
 width="400.000000pt" height="396.000000pt" viewBox="0 0 400.000000 396.000000"
 preserveAspectRatio="xMidYMid meet">

<g transform="translate(0.000000,396.000000) scale(0.100000,-0.100000)"
fill="#000000" stroke="none">
<path d="M1740 3799 c-606 -78 -1144 -455 -1429 -999 -163 -313 -218 -769
-140 -1155 80 -394 299 -777 594 -1037 380 -335 875 -505 1365 -468 562 43
1070 318 1398 756 219 293 317 580 329 970 11 331 -46 603 -187 890 -278 570
-822 960 -1453 1044 -91 12 -382 11 -477 -1z m780 -779 c11 -11 20 -24 20 -28
0 -32 -146 -130 -176 -118 -8 3 -14 13 -14 23 1 23 113 143 134 143 9 0 25 -9
36 -20z m661 -113 c77 -51 112 -171 112 -382 0 -77 -3 -160 -7 -185 -8 -45 -8
-45 10 -21 14 20 18 55 23 215 7 216 13 236 65 236 74 0 89 -58 84 -336 -3
-197 -4 -211 -26 -245 -24 -39 -66 -61 -138 -73 l-41 -7 -7 -61 c-8 -78 -8
-306 0 -347 6 -30 8 -31 61 -31 44 0 58 -5 78 -25 25 -24 33 -69 15 -80 -5 -3
-32 2 -59 11 -54 17 -84 12 -165 -29 -51 -25 -98 -24 -166 3 -44 18 -69 21
-122 17 -66 -4 -68 -4 -68 20 0 13 11 35 25 48 20 21 34 25 81 25 l57 0 -6
122 c-4 66 -7 167 -7 224 l0 103 -62 33 c-42 22 -72 47 -93 76 l-30 44 1 146
c1 147 21 279 45 308 19 23 65 17 88 -12 19 -25 21 -38 18 -193 -2 -141 1
-170 15 -196 17 -29 17 -24 18 175 1 280 22 377 93 420 42 26 67 25 108 -3z
m-2452 -97 c22 -27 45 -67 52 -87 6 -21 20 -50 30 -64 10 -15 24 -39 30 -55 8
-20 13 -24 16 -14 6 17 68 151 90 195 21 40 54 76 64 69 5 -3 9 -15 9 -28 0
-26 -79 -206 -108 -245 -31 -42 -36 -83 -14 -112 28 -35 52 -85 52 -107 0 -11
7 -25 15 -32 8 -7 33 -51 55 -98 36 -76 39 -89 29 -114 -6 -15 -19 -28 -28
-28 -24 0 -57 26 -74 58 -74 136 -97 185 -97 201 0 10 -6 24 -14 30 -12 10
-19 4 -39 -31 -14 -24 -40 -77 -58 -118 -18 -41 -39 -84 -46 -95 -7 -11 -13
-29 -13 -41 0 -24 -45 -43 -62 -26 -12 12 51 164 99 240 18 29 33 57 33 63 0
5 10 27 22 49 l22 38 -42 78 c-23 44 -65 125 -93 182 -49 99 -50 104 -33 123
30 33 60 24 103 -31z m1151 28 c51 -16 127 -65 150 -98 31 -43 50 -117 50
-191 0 -70 -17 -178 -31 -193 -5 -6 -9 -19 -9 -31 0 -36 -63 -118 -129 -168
-70 -52 -148 -80 -208 -75 -62 5 -65 18 -53 299 6 134 8 283 4 331 -7 99 -1
135 24 141 27 7 163 -4 202 -15z m-422 -13 c17 -14 43 -47 59 -73 28 -47 28
-48 27 -207 -1 -144 -4 -169 -28 -248 -31 -101 -67 -148 -146 -191 -60 -33
-98 -30 -168 10 -55 32 -87 95 -107 211 -18 104 -13 175 21 291 30 99 66 144
157 196 79 45 140 49 185 11z m1098 -7 c17 -18 42 -51 55 -73 23 -38 24 -48
23 -200 -1 -144 -4 -169 -28 -248 -31 -101 -67 -148 -146 -191 -61 -33 -104
-30 -173 14 -54 34 -79 84 -102 203 -19 99 -13 179 21 295 30 99 66 144 157
196 48 27 74 35 113 36 44 0 54 -4 80 -32z m-930 -969 c16 -18 19 -36 18 -118
-1 -117 -26 -218 -90 -368 -51 -119 -67 -142 -116 -161 l-33 -12 -116 117
c-63 65 -131 140 -149 168 -68 99 -98 213 -70 266 28 50 121 64 184 26 38 -24
96 -98 96 -124 0 -29 17 -11 34 36 41 114 116 191 187 191 24 0 42 -7 55 -21z
m-651 -194 c-4 -99 -9 -242 -10 -318 -2 -124 -5 -142 -24 -168 -42 -57 -57
-30 -66 124 l-7 107 -73 0 c-108 0 -105 3 -105 -104 0 -102 -15 -140 -53 -134
-21 3 -22 8 -27 173 -3 94 -3 241 0 328 l5 158 28 17 c27 16 29 16 42 -2 12
-15 14 -55 10 -198 -3 -138 -1 -181 10 -191 10 -10 30 -12 84 -6 39 4 75 11
81 14 5 3 10 34 10 68 0 34 5 114 10 177 8 106 11 117 36 138 21 19 29 21 41
10 13 -11 15 -37 8 -193z m853 173 c11 -18 29 -64 42 -103 42 -133 103 -309
123 -354 13 -31 15 -32 24 -15 6 10 17 44 26 74 44 148 76 248 85 266 5 10 15
37 21 59 6 22 13 50 16 62 8 28 42 40 61 21 17 -17 40 -194 57 -448 12 -170
11 -197 -1 -212 -18 -21 -45 -23 -60 -5 -11 14 -29 191 -38 380 l-6 129 -20
-33 c-17 -27 -38 -87 -61 -174 -3 -11 -19 -60 -36 -109 -17 -49 -31 -105 -31
-124 0 -42 -24 -72 -56 -72 -19 0 -25 8 -34 43 -6 23 -21 70 -35 104 -23 58
-37 105 -86 292 -31 119 -38 113 -50 -46 -14 -179 -51 -404 -67 -410 -7 -3
-15 -3 -18 0 -6 5 8 184 25 327 5 41 17 135 25 209 16 133 30 171 62 171 7 0
21 -15 32 -32z m837 12 c4 -6 1 -17 -5 -25 -9 -10 -28 -13 -73 -9 -34 3 -67 1
-73 -3 -7 -5 -9 -62 -5 -178 l6 -170 65 0 c53 0 65 -3 68 -17 3 -16 -5 -18
-66 -18 -54 0 -71 -3 -76 -16 -3 -9 -6 -56 -6 -105 l0 -89 38 -1 c61 -2 84 2
109 18 26 18 28 17 37 -14 11 -33 -15 -41 -154 -44 l-125 -3 -1 44 c-1 25 -2
106 -2 180 0 74 -1 203 -2 287 l-2 151 53 10 c74 13 206 14 214 2z m719 -289
c25 -10 28 -15 22 -43 -8 -42 -9 -42 -50 -28 -43 14 -83 7 -148 -26 -60 -30
-94 -30 -191 1 -63 20 -85 23 -118 16 -37 -9 -41 -7 -50 16 -15 39 -11 50 22
62 47 16 71 14 151 -14 93 -32 123 -32 200 6 66 31 101 34 162 10z m0 -100 c9
-8 11 -22 7 -43 -7 -32 -8 -32 -58 -29 -40 2 -67 -5 -121 -28 -84 -37 -86 -37
-154 -10 -29 12 -82 25 -118 28 -63 6 -64 7 -71 39 -5 26 -3 35 12 42 30 17
85 11 155 -15 86 -32 116 -31 189 5 63 31 129 36 159 11z m-24 -91 c15 -8 17
-15 8 -49 -9 -34 -14 -39 -46 -45 -21 -3 -61 -17 -90 -31 -65 -30 -110 -31
-180 -5 -29 11 -74 20 -102 20 -27 0 -51 3 -53 8 -3 4 -8 26 -12 49 l-7 42 37
7 c26 5 53 0 98 -16 100 -37 151 -37 227 -1 69 33 91 37 120 21z m-10 -122 c0
-7 -10 -31 -23 -53 -44 -79 -149 -104 -292 -70 -46 11 -68 23 -93 50 -65 71
-18 93 107 50 96 -32 125 -32 203 5 67 32 98 38 98 18z"/>
<path d="M1744 2805 c-4 -8 -1 -22 6 -30 9 -11 10 -71 5 -242 -12 -414 -12
-403 8 -403 30 0 94 38 117 70 52 73 72 147 77 290 7 162 -5 235 -45 273 -52
50 -155 76 -168 42z"/>
<path d="M1289 2782 c-30 -20 -57 -82 -75 -169 -18 -88 -15 -149 16 -294 17
-77 26 -99 53 -127 51 -53 64 -57 101 -31 34 23 76 91 76 122 0 10 6 28 14 40
20 31 30 266 15 337 -8 38 -22 65 -51 96 -37 40 -44 43 -85 42 -25 -2 -54 -8
-64 -16z"/>
<path d="M2379 2782 c-30 -20 -57 -82 -75 -169 -18 -88 -15 -155 16 -298 16
-72 26 -95 52 -123 52 -53 65 -57 102 -31 34 23 76 91 76 122 0 10 7 29 16 42
13 20 16 56 17 182 2 176 -5 202 -65 260 -28 27 -40 32 -76 30 -24 -1 -52 -7
-63 -15z"/>
<path d="M1496 1792 c-13 -26 -13 -28 5 -29 10 -1 19 3 19 9 0 6 7 20 17 30
15 17 15 18 -5 18 -13 0 -27 -11 -36 -28z"/>
<path d="M1547 1595 c-11 -55 -21 -111 -24 -125 -3 -19 -2 -21 5 -10 16 24 44
165 40 201 -2 24 -8 5 -21 -66z"/>
<path d="M1180 1579 c0 -8 7 -24 15 -35 18 -24 19 -7 0 26 -9 16 -14 19 -15 9z"/>
<path d="M1241 1500 c-12 -7 -9 -14 13 -41 l27 -32 -7 29 c-10 45 -18 54 -33
44z"/>
<path d="M1378 1360 c-6 -20 -3 -30 18 -48 21 -19 29 -21 35 -10 15 22 10 29
-15 22 -22 -5 -25 -2 -28 28 -3 31 -3 32 -10 8z"/>
<path d="M3740 2695 c0 -5 5 -17 10 -25 5 -8 10 -10 10 -5 0 6 -5 17 -10 25
-5 8 -10 11 -10 5z"/>
<path d="M103 1815 c0 -27 2 -38 4 -22 2 15 2 37 0 50 -2 12 -4 0 -4 -28z"/>
<path d="M111 1727 c-3 -111 74 -368 164 -547 56 -111 181 -306 212 -331 10
-8 3 4 -14 26 -157 201 -290 510 -343 795 -12 65 -18 83 -19 57z"/>
<path d="M515 810 c10 -11 20 -20 23 -20 3 0 -3 9 -13 20 -10 11 -20 20 -23
20 -3 0 3 -9 13 -20z"/>
</g>
</svg>
